# xmcd
#
# Track frame offsets:
#	150
#	18562
#	38057
#	50874
#	71855
#	89026
#	106298
#	128871
#
# Disc length: 2108 seconds
#
# Revision: 0
# Processed by: cddbd v1.5.2PL0 Copyright (c) Steve Scherf et al.
# Submitted via: SynApp - FreeCDDB Version: 2.3
#
DISCID=75083a08
DTITLE=ELECTRIC LIGHT ORCHESTRA - On The Third Day
DYEAR=1973
DGENRE=A capella
TTITLE0=Electric Light Orchestra - Ocean Breakup - King Of The Universe
TTITLE1=Electric Light Orchestra - Bluebird Is Dead
TTITLE2=Electric Light Orchestra - Oh No Not Susan
TTITLE3=Electric Light Orchestra - New World Rising - Ocean Breakup Reprise
TTITLE4=Electric Light Orchestra - Daybreaker
TTITLE5=Electric Light Orchestra - Ma-Ma-Ma Belle
TTITLE6=Electric Light Orchestra - Dreaming Of 4000
TTITLE7=Electric Light Orchestra - In The Hall Of The Mountain King
EXTD=
EXTT0=
EXTT1=
EXTT2=
EXTT3=
EXTT4=
EXTT5=
EXTT6=
EXTT7=
PLAYORDER=
